<svg width="16" height="16" viewBox="0 0 16 16" fill="none" xmlns="http://www.w3.org/2000/svg">
<path d="M5.52319 12.4236C5.66319 12.3416 5.81619 12.2616 5.98219 12.1856C5.84196 12.3947 5.69179 12.5969 5.53219 12.7916C5.25219 13.1286 5.03419 13.3076 4.89719 13.3636C4.88582 13.3684 4.87412 13.3724 4.86219 13.3756C4.85221 13.3618 4.84351 13.347 4.83619 13.3316C4.78019 13.2216 4.78219 13.1156 4.87619 12.9716C4.98219 12.8066 5.19519 12.6176 5.52319 12.4236ZM7.97819 10.7766C7.85919 10.8016 7.74119 10.8266 7.62219 10.8546C7.79845 10.5093 7.96518 10.1591 8.12219 9.80462C8.28026 10.0975 8.45041 10.3838 8.63219 10.6626C8.41519 10.6946 8.19619 10.7326 7.97819 10.7766ZM10.5032 11.7156C10.3479 11.5903 10.2024 11.4533 10.0682 11.3056C10.2962 11.3106 10.5022 11.3276 10.6802 11.3596C10.9972 11.4166 11.1462 11.5066 11.1982 11.5686C11.2146 11.5859 11.2239 11.6088 11.2242 11.6326C11.2207 11.7032 11.2001 11.7718 11.1642 11.8326C11.144 11.8813 11.1117 11.924 11.0702 11.9566C11.0496 11.9693 11.0252 11.9746 11.0012 11.9716C10.9112 11.9686 10.7432 11.9056 10.5032 11.7156ZM8.27819 6.96962C8.23819 7.21362 8.17019 7.49362 8.07819 7.79862C8.0443 7.68441 8.01461 7.569 7.98919 7.45262C7.91319 7.09962 7.90219 6.82262 7.94319 6.63062C7.98119 6.45362 8.05319 6.38262 8.13919 6.34762C8.18532 6.32729 8.23417 6.31381 8.28419 6.30762C8.29719 6.33762 8.31219 6.39962 8.31619 6.50562C8.32119 6.62762 8.30919 6.78262 8.27819 6.97062V6.96962Z" fill="#477577"/>
<path fill-rule="evenodd" clip-rule="evenodd" d="M4 0H9.293C9.5582 5.66374e-05 9.81251 0.105451 10 0.293L13.707 4C13.8945 4.18749 13.9999 4.4418 14 4.707V14C14 14.5304 13.7893 15.0391 13.4142 15.4142C13.0391 15.7893 12.5304 16 12 16H4C3.46957 16 2.96086 15.7893 2.58579 15.4142C2.21071 15.0391 2 14.5304 2 14V2C2 1.46957 2.21071 0.960859 2.58579 0.585786C2.96086 0.210714 3.46957 0 4 0ZM9.5 1.5V3.5C9.5 3.76522 9.60536 4.01957 9.79289 4.20711C9.98043 4.39464 10.2348 4.5 10.5 4.5H12.5L9.5 1.5ZM4.165 13.668C4.255 13.848 4.395 14.011 4.603 14.087C4.81 14.162 5.015 14.127 5.183 14.057C5.501 13.927 5.818 13.621 6.109 13.271C6.442 12.87 6.792 12.344 7.13 11.761C7.78253 11.5676 8.45075 11.4317 9.127 11.355C9.427 11.738 9.737 12.068 10.037 12.305C10.317 12.525 10.64 12.708 10.971 12.722C11.1513 12.7309 11.3298 12.6826 11.481 12.584C11.636 12.483 11.751 12.337 11.835 12.168C11.925 11.987 11.98 11.798 11.973 11.605C11.9667 11.4147 11.8962 11.2322 11.773 11.087C11.547 10.817 11.177 10.687 10.813 10.622C10.3714 10.5536 9.92343 10.5368 9.478 10.572C9.10186 10.0403 8.77389 9.47602 8.498 8.886C8.748 8.226 8.935 7.602 9.018 7.092C9.054 6.874 9.073 6.666 9.066 6.478C9.06476 6.29139 9.02134 6.10747 8.939 5.94C8.89156 5.84758 8.82414 5.76687 8.74164 5.70374C8.65913 5.64061 8.56361 5.59663 8.462 5.575C8.26 5.532 8.052 5.575 7.861 5.652C7.484 5.802 7.285 6.122 7.21 6.475C7.137 6.815 7.17 7.211 7.256 7.611C7.344 8.017 7.494 8.459 7.686 8.906C7.37889 9.6698 7.02419 10.4136 6.624 11.133C6.10864 11.2951 5.61188 11.5114 5.142 11.778C4.772 11.998 4.443 12.258 4.245 12.565C4.035 12.891 3.97 13.279 4.165 13.668Z" fill="#477577"/>
</svg>
